<svg width="24" height="24" viewBox="0 0 24 24" fill="none" xmlns="http://www.w3.org/2000/svg">
<g clip-path="url(#clip0_9589_14268)">
<path d="M11.9371 16.5528L12 16.6036L12.0629 16.5528C13.7175 15.2157 14.9712 13.9254 15.8201 12.6814C16.6689 11.4375 17.1 10.2597 17.1 9.15C17.1 8.20468 16.927 7.39221 16.5763 6.71644C16.2292 6.0478 15.8003 5.50319 15.2883 5.08505C14.779 4.66912 14.2261 4.36696 13.63 4.1796C13.0394 3.99399 12.4958 3.9 12 3.9C11.5042 3.9 10.9606 3.99399 10.37 4.1796C9.77389 4.36696 9.22104 4.66912 8.71175 5.08505C8.19974 5.50319 7.77075 6.0478 7.42374 6.71644C7.07303 7.39221 6.9 8.20468 6.9 9.15C6.9 10.2597 7.33106 11.4375 8.1799 12.6814C9.02884 13.9254 10.2825 15.2157 11.9371 16.5528ZM12 18.8757C9.68489 17.1615 7.95941 15.5001 6.81907 13.8922C5.66939 12.271 5.1 10.6908 5.1 9.15C5.1 7.97864 5.31032 6.95635 5.72777 6.08053C6.14769 5.19952 6.68595 4.46468 7.3419 3.87433C7.99906 3.28288 8.73788 2.83965 9.55887 2.54409C10.3823 2.24767 11.1958 2.1 12 2.1C12.8042 2.1 13.6177 2.24767 14.4411 2.54409C15.2621 2.83965 16.0009 3.28288 16.6581 3.87433C17.314 4.46468 17.8523 5.19952 18.2722 6.08053C18.6897 6.95635 18.9 7.97864 18.9 9.15C18.9 10.6908 18.3306 12.271 17.1809 13.8922C16.0406 15.5001 14.3151 17.1615 12 18.8757ZM13.3418 10.3418C12.9687 10.7149 12.5233 10.9 12 10.9C11.4767 10.9 11.0313 10.7149 10.6582 10.3418C10.2851 9.96873 10.1 9.52327 10.1 9C10.1 8.47673 10.2851 8.03127 10.6582 7.65821C11.0313 7.28515 11.4767 7.1 12 7.1C12.5233 7.1 12.9687 7.28515 13.3418 7.65821C13.7149 8.03127 13.9 8.47673 13.9 9C13.9 9.52327 13.7149 9.96873 13.3418 10.3418ZM5.1 21.9V20.1H18.9V21.9H5.1Z" fill="#778089" stroke="white" stroke-width="0.2"/>
</g>
<defs>
<clipPath id="clip0_9589_14268">
<rect width="24" height="24" rx="4" fill="white"/>
</clipPath>
</defs>
</svg>
