<svg width="17" height="16" viewBox="0 0 17 16" fill="none" xmlns="http://www.w3.org/2000/svg">
<path d="M16.0912 8.75093C16.0672 8.84692 16.0433 8.93684 16.0194 9.02073L13.773 14.2999C13.6714 14.5249 13.5012 14.7198 13.2557 14.8835C13.0116 15.0462 12.7604 15.125 12.5 15.125H4.375V14.75V6V5.55178L8.88128 1.0455C9.22299 0.703786 9.77701 0.703786 10.1187 1.0455L10.3491 1.27589C10.4209 1.34763 10.4843 1.44962 10.5361 1.58764C10.5879 1.72588 10.6125 1.85474 10.6125 1.975V2.11302C10.6125 2.18536 10.6035 2.25741 10.5858 2.32753L10.1062 4.2242C9.92645 4.93497 10.4637 5.625 11.1969 5.625H14.75C15.1147 5.625 15.4335 5.76025 15.7116 6.03839C15.9897 6.31652 16.125 6.63532 16.125 7V8.5C16.125 8.57566 16.1142 8.65914 16.0912 8.75093ZM4.125 14.75V15.125H1.5C1.01675 15.125 0.625 14.7332 0.625 14.25V6.5C0.625 6.01675 1.01675 5.625 1.5 5.625H4.125V6C4.125 6.48325 3.73325 6.875 3.25 6.875H3C2.37868 6.875 1.875 7.37868 1.875 8V12.75C1.875 13.3713 2.37868 13.875 3 13.875H3.25C3.73325 13.875 4.125 14.2668 4.125 14.75ZM5.625 12.75C5.625 13.3713 6.12868 13.875 6.75 13.875H11.8406C12.2906 13.875 12.6974 13.6068 12.8746 13.1932L14.784 8.7379C14.8441 8.59787 14.875 8.4471 14.875 8.29474V8C14.875 7.37868 14.3713 6.875 13.75 6.875H9.11542C8.62898 6.875 8.27133 6.41895 8.38729 5.94653C8.62846 4.96398 7.42483 4.2859 6.70944 5.00129L5.9545 5.75622C5.74353 5.9672 5.625 6.25335 5.625 6.55171V12.75Z" fill="#778089" stroke="white" stroke-width="0.25"/>
</svg>
